<mxfile host="app.diagrams.net" agent="Mozilla/5.0 (Windows NT 10.0; Win64; x64) AppleWebKit/537.36 (KHTML, like Gecko) Chrome/140.0.0.0 Safari/537.36 Edg/140.0.0.0" version="28.2.5">
  <diagram name="第 1 页" id="_pCwdOUl3tuuAQ-fd82c">
    <mxGraphModel dx="1554" dy="904" grid="1" gridSize="10" guides="1" tooltips="1" connect="1" arrows="1" fold="1" page="1" pageScale="1" pageWidth="827" pageHeight="1169" math="0" shadow="0">
      <root>
        <mxCell id="0" />
        <mxCell id="1" parent="0" />
        <mxCell id="fYu4OQVJViaWv0Z7EtlI-1" value="" style="container=1;collapsible=0;expand=0;recursiveResize=0;html=1;whiteSpace=wrap;strokeColor=#A56EFF;fillColor=none;" vertex="1" parent="1">
          <mxGeometry x="90" y="190" width="220" height="140" as="geometry" />
        </mxCell>
        <mxCell id="fYu4OQVJViaWv0Z7EtlI-2" value="gateway" style="shape=rect;fillColor=#A56EFF;aspect=fixed;resizable=0;labelPosition=right;verticalLabelPosition=middle;align=left;verticalAlign=middle;strokeColor=none;part=1;spacingLeft=5;fontSize=14;" vertex="1" parent="fYu4OQVJViaWv0Z7EtlI-1">
          <mxGeometry width="48" height="48" relative="1" as="geometry" />
        </mxCell>
        <mxCell id="fYu4OQVJViaWv0Z7EtlI-3" value="" style="fillColor=#ffffff;shape=mxgraph.ibm_cloud.microservices--1;strokeColor=none;dashed=0;outlineConnect=0;html=1;labelPosition=center;verticalLabelPosition=bottom;verticalAlign=top;part=1;movable=0;resizable=0;rotatable=0;" vertex="1" parent="fYu4OQVJViaWv0Z7EtlI-2">
          <mxGeometry width="24" height="24" relative="1" as="geometry">
            <mxPoint x="12" y="12" as="offset" />
          </mxGeometry>
        </mxCell>
        <mxCell id="fYu4OQVJViaWv0Z7EtlI-4" value="" style="container=1;collapsible=0;expand=0;recursiveResize=0;html=1;whiteSpace=wrap;strokeColor=#A56EFF;fillColor=none;" vertex="1" parent="1">
          <mxGeometry x="414" y="190" width="220" height="140" as="geometry" />
        </mxCell>
        <mxCell id="fYu4OQVJViaWv0Z7EtlI-5" value="auth" style="shape=rect;fillColor=#A56EFF;aspect=fixed;resizable=0;labelPosition=right;verticalLabelPosition=middle;align=left;verticalAlign=middle;strokeColor=none;part=1;spacingLeft=5;fontSize=14;" vertex="1" parent="fYu4OQVJViaWv0Z7EtlI-4">
          <mxGeometry width="48" height="48" relative="1" as="geometry" />
        </mxCell>
        <mxCell id="fYu4OQVJViaWv0Z7EtlI-6" value="" style="fillColor=#ffffff;shape=mxgraph.ibm_cloud.microservices--1;strokeColor=none;dashed=0;outlineConnect=0;html=1;labelPosition=center;verticalLabelPosition=bottom;verticalAlign=top;part=1;movable=0;resizable=0;rotatable=0;" vertex="1" parent="fYu4OQVJViaWv0Z7EtlI-5">
          <mxGeometry width="24" height="24" relative="1" as="geometry">
            <mxPoint x="12" y="12" as="offset" />
          </mxGeometry>
        </mxCell>
        <mxCell id="fYu4OQVJViaWv0Z7EtlI-7" value="" style="container=1;collapsible=0;expand=0;recursiveResize=0;html=1;whiteSpace=wrap;strokeColor=#A56EFF;fillColor=none;" vertex="1" parent="1">
          <mxGeometry x="90" y="470" width="220" height="140" as="geometry" />
        </mxCell>
        <mxCell id="fYu4OQVJViaWv0Z7EtlI-8" value="slink" style="shape=rect;fillColor=#A56EFF;aspect=fixed;resizable=0;labelPosition=right;verticalLabelPosition=middle;align=left;verticalAlign=middle;strokeColor=none;part=1;spacingLeft=5;fontSize=14;" vertex="1" parent="fYu4OQVJViaWv0Z7EtlI-7">
          <mxGeometry width="48" height="48" relative="1" as="geometry" />
        </mxCell>
        <mxCell id="fYu4OQVJViaWv0Z7EtlI-9" value="" style="fillColor=#ffffff;shape=mxgraph.ibm_cloud.microservices--1;strokeColor=none;dashed=0;outlineConnect=0;html=1;labelPosition=center;verticalLabelPosition=bottom;verticalAlign=top;part=1;movable=0;resizable=0;rotatable=0;" vertex="1" parent="fYu4OQVJViaWv0Z7EtlI-8">
          <mxGeometry width="24" height="24" relative="1" as="geometry">
            <mxPoint x="12" y="12" as="offset" />
          </mxGeometry>
        </mxCell>
        <mxCell id="fYu4OQVJViaWv0Z7EtlI-10" value="" style="container=1;collapsible=0;expand=0;recursiveResize=0;html=1;whiteSpace=wrap;strokeColor=#A56EFF;fillColor=none;" vertex="1" parent="1">
          <mxGeometry x="414" y="470" width="220" height="140" as="geometry" />
        </mxCell>
        <mxCell id="fYu4OQVJViaWv0Z7EtlI-11" value="statictis" style="shape=rect;fillColor=#A56EFF;aspect=fixed;resizable=0;labelPosition=right;verticalLabelPosition=middle;align=left;verticalAlign=middle;strokeColor=none;part=1;spacingLeft=5;fontSize=14;" vertex="1" parent="fYu4OQVJViaWv0Z7EtlI-10">
          <mxGeometry width="48" height="48" relative="1" as="geometry" />
        </mxCell>
        <mxCell id="fYu4OQVJViaWv0Z7EtlI-12" value="" style="fillColor=#ffffff;shape=mxgraph.ibm_cloud.microservices--1;strokeColor=none;dashed=0;outlineConnect=0;html=1;labelPosition=center;verticalLabelPosition=bottom;verticalAlign=top;part=1;movable=0;resizable=0;rotatable=0;" vertex="1" parent="fYu4OQVJViaWv0Z7EtlI-11">
          <mxGeometry width="24" height="24" relative="1" as="geometry">
            <mxPoint x="12" y="12" as="offset" />
          </mxGeometry>
        </mxCell>
        <mxCell id="fYu4OQVJViaWv0Z7EtlI-13" value="" style="container=1;collapsible=0;expand=0;recursiveResize=0;html=1;whiteSpace=wrap;strokeColor=#A56EFF;fillColor=none;" vertex="1" parent="1">
          <mxGeometry x="90" y="670" width="220" height="140" as="geometry" />
        </mxCell>
        <mxCell id="fYu4OQVJViaWv0Z7EtlI-14" value="manager" style="shape=rect;fillColor=#A56EFF;aspect=fixed;resizable=0;labelPosition=right;verticalLabelPosition=middle;align=left;verticalAlign=middle;strokeColor=none;part=1;spacingLeft=5;fontSize=14;" vertex="1" parent="fYu4OQVJViaWv0Z7EtlI-13">
          <mxGeometry width="48" height="48" relative="1" as="geometry" />
        </mxCell>
        <mxCell id="fYu4OQVJViaWv0Z7EtlI-15" value="" style="fillColor=#ffffff;shape=mxgraph.ibm_cloud.microservices--1;strokeColor=none;dashed=0;outlineConnect=0;html=1;labelPosition=center;verticalLabelPosition=bottom;verticalAlign=top;part=1;movable=0;resizable=0;rotatable=0;" vertex="1" parent="fYu4OQVJViaWv0Z7EtlI-14">
          <mxGeometry width="24" height="24" relative="1" as="geometry">
            <mxPoint x="12" y="12" as="offset" />
          </mxGeometry>
        </mxCell>
        <mxCell id="fYu4OQVJViaWv0Z7EtlI-16" value="" style="container=1;collapsible=0;expand=0;recursiveResize=0;html=1;whiteSpace=wrap;strokeColor=#A56EFF;fillColor=none;" vertex="1" parent="1">
          <mxGeometry x="414" y="670" width="220" height="140" as="geometry" />
        </mxCell>
        <mxCell id="fYu4OQVJViaWv0Z7EtlI-17" value="finance" style="shape=rect;fillColor=#A56EFF;aspect=fixed;resizable=0;labelPosition=right;verticalLabelPosition=middle;align=left;verticalAlign=middle;strokeColor=none;part=1;spacingLeft=5;fontSize=14;" vertex="1" parent="fYu4OQVJViaWv0Z7EtlI-16">
          <mxGeometry width="48" height="48" relative="1" as="geometry" />
        </mxCell>
        <mxCell id="fYu4OQVJViaWv0Z7EtlI-18" value="" style="fillColor=#ffffff;shape=mxgraph.ibm_cloud.microservices--1;strokeColor=none;dashed=0;outlineConnect=0;html=1;labelPosition=center;verticalLabelPosition=bottom;verticalAlign=top;part=1;movable=0;resizable=0;rotatable=0;" vertex="1" parent="fYu4OQVJViaWv0Z7EtlI-17">
          <mxGeometry width="24" height="24" relative="1" as="geometry">
            <mxPoint x="12" y="12" as="offset" />
          </mxGeometry>
        </mxCell>
      </root>
    </mxGraphModel>
  </diagram>
</mxfile>
